<svg xmlns="http://www.w3.org/2000/svg" viewBox="0 0 202.99 44.44"><defs><style>.a{fill:#231815;}</style></defs><polyline class="a" points="32.63 31.76 36.56 7.29 23.41 6.53 23.31 8.26 0 7.09 0.58 21.3 2.27 19.71 22.71 19.14 22.04 31.2 3.13 32.45 0.47 30.09 0.34 44.32 33.6 42.07"/><polygon class="a" points="124.46 17.87 112.38 10.08 111.39 11.84 106.93 9.5 108.21 7.97 96.08 0 85.51 21.89 92.74 26.43 99.75 18.06 106.65 20.22 103.69 25.45 96.92 23.31 94.79 27.16 100.81 30.55 94.69 41.36 100.11 44.17 106.24 40.22 124.46 17.87"/><polygon class="a" points="165.49 17.87 153.41 10.08 152.41 11.84 147.95 9.5 149.24 7.97 137.1 0 126.53 21.89 133.77 26.43 139.58 19.5 146.81 21.76 135.72 41.36 141.59 44.44 147.3 40.16 165.49 17.87"/><path class="a" d="M202.83,24.72l-15.37-7.25a.14.14,0,0,0-.19.08L185,22.78l.66-17.3a.09.09,0,0,0-.1-.1l-15.08.3a.08.08,0,0,0-.08.09l3.3,38.38a.23.23,0,0,0,.24.21l10-.49a.3.3,0,0,0,.29-.29l.56-14.51L200,31.82a.48.48,0,0,0,.52-.29L203,25.08A.28.28,0,0,0,202.83,24.72Z"/><polygon class="a" points="82.72 21.46 77.28 13.54 43.84 32.64 52.19 44.4 82.72 21.46"/><polygon class="a" points="42.16 16.61 59.09 18.15 60.7 10.72 44.15 5.34 42.16 16.61"/></svg>