<svg xmlns="http://www.w3.org/2000/svg" viewBox="0 0 333.6 44.95"><defs><style>.a{fill:#231815;}</style></defs><polygon class="a" points="39.6 13.69 30.53 0 0 22.92 6.16 32.77 17.21 26.47 18.85 44.65 26.36 44.74 25.24 43.75 30.36 23.93 22.46 23.47 39.6 13.69"/><path class="a" d="M129.14,7.83,114.83,5.09a.19.19,0,0,0-.23.15l-.47,1.89L87,4.48h0V20.83a.07.07,0,0,0,.06.07l24-1.18L105.38,43a.08.08,0,0,0,.05.08L115.22,45c-.06,0-.73-1.36-.73-1.36Z"/><path class="a" d="M150.44,25.93l-3.61-.12.33-3.5-7.19.05s-.07,0-.06.06l.07,3.15-9.56-.32a.06.06,0,0,0-.06.05l0,7.79h0l9.81-.92,0,1.78-.45-.69a.13.13,0,0,0-.16,0l-10.27,6,5.17,5a.14.14,0,0,0,.15,0l5.68-5.48.14,5.52a.18.18,0,0,0,.17.18l4.36.47a.07.07,0,0,0,.07-.06l1.24-13.26,4-.37a.2.2,0,0,0,.16-.18l.11-5A.08.08,0,0,0,150.44,25.93Z"/><path class="a" d="M190.8,13.92l-12.67-6.6a.12.12,0,0,0-.17.06l-6.61,12.83L163,14.78a.08.08,0,0,0-.12,0l-6.49,10.71,9.91,4.26A7.56,7.56,0,0,1,165,31.21l-11.63,8.65h0l4.34,4.82a.77.77,0,0,0,.81.18l15-6.29a4,4,0,0,0,1.53-1.26l2-3,6.41,2.75A.47.47,0,0,0,184,37l3.9-5.79a.1.1,0,0,0,0-.15l-5.94-3.89Z"/><polygon class="a" points="83.89 21.98 78.45 14.06 45.02 33.16 53.37 44.92 83.89 21.98"/><path class="a" d="M60.23,18.67s0,0,0,0l1.61-7.4L45.32,5.86l-2,11.27Z"/><polygon class="a" points="218.28 27.01 218.08 33.02 193.02 33.92 193.03 25.2 218.28 27.01"/><polygon class="a" points="267.03 24.27 262.19 15.98 227.45 32.58 234.91 44.92 267.03 24.27"/><path class="a" d="M239.91,23.57l1.24-6.92-14.67-3.54L224,24.28l15.74-.55A.18.18,0,0,0,239.91,23.57Z"/><path class="a" d="M226.83,12.05l16.82,2.28s0,0,0,0L245.62,7,229.32.88Z"/><polyline class="a" points="287.07 39.7 287.1 39.67 289.3 24.42 282.68 24.02 282.62 24.91 270.85 24.31 271.14 31.57 282.34 30.46 282.21 33 272.95 32.45 272.89 37.71 282.02 37.01 281.9 39.4 271.09 38.84 271.02 44.92 287.8 43.77 286.57 43.12"/><polygon class="a" points="333.6 21.98 328.16 14.06 294.72 33.16 303.07 44.92 333.6 21.98"/><path class="a" d="M309.94,18.67s0,0,0,0l1.6-7.4L295,5.86l-2,11.27Z"/></svg>