<svg xmlns="http://www.w3.org/2000/svg" viewBox="0 0 153.2 53.04"><defs><style>.a,.b{fill:none;stroke:#000;stroke-miterlimit:10;}.a{stroke-width:0.95px;}.b{stroke-width:1.07px;}.c{fill:#1e1412;}</style></defs><line class="a" x1="146.96" y1="49.64" x2="152.9" y2="44.78"/><line class="a" x1="146.86" y1="45.49" x2="146.74" y2="50.03"/><line class="a" x1="139.6" y1="50.71" x2="147.05" y2="45.13"/><line class="b" x1="131.23" y1="51.41" x2="138.69" y2="46.7"/><line class="b" x1="131.12" y1="46.75" x2="130.98" y2="51.85"/><line class="b" x1="122.95" y1="52.62" x2="131.33" y2="46.34"/><path class="c" d="M115.5,11.08l-15.06-.9L100.19,14H96.76l2-10L86.18,3.58,84.62,14,75.8,11.53,75.74,21h7.85L80.3,43.28,86.76,43s4-3,4-3l4-19h5L98.65,44.65h9.06Z"/><polygon class="c" points="106.19 0 107.62 8.24 111.79 7.58 111.95 0.03 106.19 0"/><polygon class="c" points="117.54 3.37 112.84 3.31 112.71 9.53 115.86 9.84 117.54 3.37"/><path class="c" d="M39.76,11.08l-15.07-.9L24.44,14H21L23,4,10.43,3.58,8.88,14,.06,11.53,0,21H7.85L4.56,43.28,11,43s4-3,4-3l4-19h5L22.91,44.65H32Z"/><polygon class="c" points="30.45 0 31.88 8.24 36.05 7.58 36.21 0.03 30.45 0"/><polygon class="c" points="41.8 3.37 37.1 3.31 36.97 9.53 40.12 9.84 41.8 3.37"/><path class="c" d="M72.59,15.05l-5.25,0L68,9.54,56,10l.27,5-14.89-.08L41.69,27l15.13-1.85L57,27.9l-.82-1.17h0L40.37,36.57l7.08,7.82,9.88-10.11L57.82,44a.12.12,0,0,0,.12.12l7,.55-1-1.45L66.3,24l6.24-.77a.1.1,0,0,0,.09-.1Z"/><path class="c" d="M148.33,15.05l-5.25,0,.67-5.48-12,.45.27,5-14.89-.08.3,12.13,15.13-1.85.14,2.74-.82-1.17s0,0,0,0l-15.75,9.85,7.08,7.82,9.88-10.11.49,9.71a.13.13,0,0,0,.12.12l7,.55-1-1.45L142,24l6.24-.77a.11.11,0,0,0,.1-.1Z"/></svg>