<svg xmlns="http://www.w3.org/2000/svg" viewBox="0 0 166.18 45.43"><defs><style>.a{fill:#231815;}</style></defs><polygon class="a" points="1.03 13.85 25.74 18 28.39 7.57 4.31 0 1.03 13.85"/><polygon class="a" points="26.75 20 5.82 16.48 3.58 25.32 23.97 31.73 26.75 20"/><path class="a" d="M30.35,36.12,3.29,27.94,0,41.79l27.88,3.64a.05.05,0,0,0,.05,0Z"/><polygon class="a" points="58.48 27 50.98 21.37 36.63 41.6 41.56 45.43 58.48 27"/><polygon class="a" points="29.91 24.54 34.43 31.58 38.01 29.35 35.22 22.33 29.91 24.54"/><polygon class="a" points="41.67 23.23 37.32 25 39.62 30.79 42.65 29.85 41.67 23.23"/><polygon class="a" points="103.62 24.79 98.78 16.49 64.03 33.09 71.5 45.43 103.62 24.79"/><path class="a" d="M76.5,24.08l1.24-6.91L63.07,13.62,60.58,24.79l15.74-.55A.18.18,0,0,0,76.5,24.08Z"/><path class="a" d="M63.42,12.56l16.82,2.28s0,0,0,0l1.93-7.33-16.3-6.1Z"/><polyline class="a" points="122.74 40.15 122.76 40.13 124.98 24.71 118.29 24.32 118.23 25.21 106.35 24.61 106.64 31.94 117.95 30.82 117.83 33.38 108.46 32.83 108.41 38.15 117.62 37.44 117.5 39.85 106.59 39.28 106.52 45.43 123.47 44.27 122.22 43.61"/><polygon class="a" points="166.18 22.49 160.75 14.57 127.31 33.67 135.66 45.43 166.18 22.49"/><path class="a" d="M142.53,19.18s0,0,0,0l1.6-7.4L127.62,6.37l-2,11.27Z"/></svg>