<svg xmlns="http://www.w3.org/2000/svg" viewBox="0 0 156.06 43.31"><defs><style>.a{fill:#231815;}</style></defs><path class="a" d="M38.64,13.05l-4.58-.31L36.6,5,22.18,3.58l-1,8.37-7.26-.55-.16-7.14L3,5.61,4,11l-4-.18,0,12.7,6.41-.35.94,4.85,7-1.61-.09-3.67,5.8-.31-2.16,19,8,1.8s-.79-1.87-.79-1.87c.17-.6,6.26-19,6.43-19.63l6.92-.36Z"/><polygon class="a" points="70.14 21.41 69.94 27.41 44.88 28.31 44.89 19.59 70.14 21.41"/><path class="a" d="M110.15,35.43,87,35l1-9.78,21.37.13L108.2,13.69,88.48,17.83,90,5,72.94,5l4.51,37c0,.41.18,1.3.17,1.3s1,0,1.42,0l30.41-2.43h0Z"/><polygon class="a" points="103.42 0 102.64 8.33 106.84 8.79 108.97 1.54 103.42 0"/><polygon class="a" points="113.49 6.23 108.97 4.94 107.22 10.91 110.18 12.03 113.49 6.23"/><path class="a" d="M155.83,11.21l-11.92-8-1.63,2.59L118.63,4.32l1,14.24,15.74-1.75L121.46,39l7.09,3.89a.39.39,0,0,0,.46-.08l9.41-11.09,7.85,11.6,9.79-7.6-11.71-11Z"/></svg>